<?xml version="1.0" standalone="no"?>
<!DOCTYPE svg PUBLIC "-//W3C//DTD SVG 20010904//EN"
 "http://www.w3.org/TR/2001/REC-SVG-20010904/DTD/svg10.dtd">
<svg version="1.0" xmlns="http://www.w3.org/2000/svg"
 width="512.000000pt" height="512.000000pt" viewBox="0 0 512.000000 512.000000"
 preserveAspectRatio="xMidYMid meet">
<metadata>
Created by potrace 1.13, written by Peter Selinger 2001-2015
</metadata>
<g transform="translate(0.000000,512.000000) scale(0.100000,-0.100000)"
fill="#000000" stroke="none">
<path d="M0 2779 l0 -2340 53 29 c64 37 126 46 198 31 97 -21 163 -69 207
-153 22 -43 27 -64 27 -131 0 -89 -15 -141 -52 -185 l-25 -30 2356 0 2356 0 0
2348 0 2349 -57 -29 c-52 -27 -65 -29 -133 -26 -130 8 -226 77 -270 195 -32
87 -24 151 30 236 l30 47 -2360 0 -2360 0 0 -2341z m3861 2129 c-16 -29 -32
-65 -35 -80 -6 -27 -8 -28 -81 -28 -73 0 -75 1 -117 41 -40 37 -46 40 -83 34
l-39 -6 24 26 c13 14 34 25 47 25 16 0 23 6 23 20 0 19 7 20 145 20 l145 0
-29 -52z m759 16 c0 -59 -12 -64 -158 -64 -109 0 -131 -3 -136 -16 -3 -9 -6
-78 -6 -154 l0 -138 -69 -21 c-37 -11 -96 -39 -130 -62 -59 -39 -64 -41 -89
-28 -32 17 -112 94 -112 109 0 6 68 10 195 10 l195 0 0 120 0 120 -215 2 -215
3 26 55 c50 108 20 100 391 100 l323 0 0 -36z m-1307 -82 c-24 -20 -36 -43
-48 -91 -16 -65 -16 -74 11 -168 12 -41 20 -53 43 -61 29 -10 29 -12 36 -109
15 -210 65 -379 159 -541 31 -51 35 -65 26 -87 -17 -44 36 -135 111 -190 54
-40 65 -44 98 -39 33 5 47 0 124 -51 102 -66 211 -118 294 -140 32 -9 127 -24
211 -33 l152 -17 11 -32 c9 -29 18 -35 78 -53 82 -24 85 -24 164 -4 49 12 67
22 85 47 l22 32 0 -980 c0 -1063 -2 -1094 -55 -1265 -53 -168 -138 -311 -264
-442 -163 -172 -342 -271 -599 -335 -60 -15 -179 -17 -1142 -20 l-1075 -2 47
24 c45 24 47 26 64 100 18 75 18 76 -5 145 -12 39 -28 70 -34 70 -29 1 -37 22
-52 150 -9 74 -26 171 -37 215 -22 86 -95 247 -153 333 -22 34 -34 64 -33 81
1 15 -12 51 -30 83 -27 47 -44 63 -98 93 -41 22 -73 33 -85 30 -11 -4 -30 2
-47 13 -50 36 -246 129 -315 151 -59 18 -191 39 -355 58 -33 3 -45 10 -52 28
-7 19 -23 26 -83 41 -67 15 -81 16 -138 3 -42 -9 -72 -22 -87 -38 l-23 -25 3
1045 3 1044 27 95 c48 172 98 277 192 404 196 260 492 426 816 456 47 4 530 8
1075 8 l990 1 -32 -27z m659 -72 l308 0 0 -90 0 -90 -302 0 c-327 0 -304 3
-380 -52 -14 -10 -21 -8 -44 12 -35 34 -64 92 -64 132 0 40 32 104 66 136 l25
22 42 -35 41 -35 308 0z m-482 13 c-23 -35 -30 -59 -30 -95 0 -47 27 -119 50
-133 18 -11 11 -25 -13 -25 -32 0 -91 66 -106 117 -24 85 28 183 96 183 l33 0
-30 -47z m1179 -9 c28 -52 87 -106 143 -131 l38 -17 0 -153 0 -153 -175 0
-175 0 -70 71 -70 71 0 179 0 179 143 0 142 0 24 -46z m297 -168 c11 -12 14
-70 14 -330 0 -176 -4 -316 -9 -316 -5 0 -11 -8 -13 -17 -5 -17 -66 -53 -115
-68 l-23 -6 0 200 0 201 -107 0 c-60 0 -115 5 -123 10 -10 6 35 10 138 10
l152 0 1 98 c1 53 1 127 -1 165 l-2 67 37 0 c20 0 43 -6 51 -14z m-1101 -83
c21 -39 63 -81 121 -121 l33 -22 -30 -48 c-38 -59 -59 -131 -59 -198 0 -47 -3
-55 -36 -84 -45 -39 -73 -50 -130 -50 -31 0 -44 -4 -44 -14 0 -7 -21 -31 -46
-52 -44 -36 -47 -37 -60 -19 -8 10 -14 25 -14 32 0 7 -4 13 -9 13 -9 0 -50 87
-76 161 -23 65 -53 213 -61 302 l-6 77 56 0 c31 0 56 -4 56 -10 0 -5 9 -10 20
-10 11 0 20 4 20 10 0 5 19 23 42 40 38 27 48 30 122 30 l81 0 20 -37z m533
-252 c-7 -9 -100 -105 -206 -213 -107 -108 -199 -202 -203 -210 -5 -7 -14 -37
-20 -67 l-11 -53 -44 6 c-73 10 -116 36 -142 86 -27 53 -28 143 -2 147 97 12
72 -7 400 297 l135 124 52 -51 c43 -42 50 -53 41 -66z m-251 70 l55 -6 -101
-93 -101 -94 0 37 c0 57 62 181 84 168 5 -3 33 -9 63 -12z m433 -262 l0 -161
-22 14 c-13 9 -38 36 -56 61 l-33 45 45 64 c24 35 47 80 51 101 4 20 9 37 11
37 2 0 4 -73 4 -161z m210 -154 l0 -305 36 -40 c42 -46 39 -54 -35 -102 -72
-45 -134 -38 -206 25 -38 33 -39 36 -24 53 47 54 49 67 49 379 l0 295 90 0 90
0 0 -305z m-402 164 c9 -22 7 -30 -11 -47 -39 -35 -105 -62 -169 -68 l-63 -6
110 111 110 111 7 -37 c3 -21 11 -50 16 -64z m145 -209 l47 -35 0 -98 c0 -102
-9 -135 -48 -170 -17 -16 -19 -27 -15 -78 l6 -59 -79 0 c-99 0 -236 28 -339
69 -127 51 -252 131 -204 131 6 0 22 14 36 30 13 17 33 30 44 30 16 0 19 7 19
50 0 57 15 93 54 130 24 22 36 24 114 25 76 0 95 4 152 32 36 17 74 37 84 45
18 14 22 12 51 -26 17 -23 52 -57 78 -76z m-801 -48 c14 -55 73 -109 128 -118
22 -4 40 -10 40 -13 0 -20 -30 -31 -82 -31 -70 0 -109 24 -140 84 -25 48 -18
116 15 147 l22 20 3 -23 c1 -13 7 -42 14 -66z m1248 -76 c0 -68 3 -131 6 -140
4 -11 1 -16 -10 -16 -9 0 -16 -6 -16 -13 0 -8 -9 -22 -20 -32 -11 -10 -20 -13
-20 -7 0 7 -9 12 -19 12 -11 0 -33 17 -50 37 -29 35 -31 43 -31 119 0 90 -7
81 93 123 26 11 47 25 47 30 0 6 5 11 10 11 6 0 10 -48 10 -124z m-323 -332
c47 -12 121 2 158 30 l35 27 0 -31 c0 -47 -26 -77 -81 -95 -68 -23 -120 -13
-170 32 -28 25 -39 43 -39 64 l0 28 37 -25 c20 -13 47 -27 60 -30z m-4192
-1667 c42 -11 55 -20 81 -59 27 -40 32 -57 37 -134 l5 -89 -39 -55 -39 -56 0
-252 0 -252 -90 0 -90 0 0 251 0 252 -35 53 c-35 52 -35 53 -35 163 0 100 2
112 23 136 17 21 81 47 127 54 3 0 28 -5 55 -12z m356 -83 c46 -9 89 -19 94
-23 6 -5 25 -11 44 -15 53 -10 201 -83 201 -99 0 -8 -7 -20 -15 -27 -13 -11
-30 -6 -103 28 -103 48 -204 78 -299 87 -119 11 -133 14 -133 35 0 14 9 20 38
23 74 8 91 7 173 -9z m-591 -147 c0 -66 3 -77 35 -124 l35 -52 0 -261 0 -260
120 0 120 0 0 160 c0 151 1 160 19 160 43 0 176 -31 216 -50 23 -11 47 -20 53
-20 34 0 -19 -83 -133 -207 l-35 -38 77 -78 c43 -42 81 -76 85 -75 4 2 56 47
116 100 l109 97 18 -37 c32 -67 53 -139 60 -206 l7 -66 -151 0 -151 0 0 -120
0 -120 258 0 257 0 60 -40 c49 -33 69 -40 108 -40 43 0 47 -2 47 -25 0 -18 -5
-25 -20 -25 -13 0 -20 -7 -20 -20 0 -20 -7 -20 -505 -20 l-505 0 0 34 c0 67
-3 66 156 66 l144 0 0 198 0 197 -83 83 -83 82 -199 -2 -200 -3 -3 -147 -3
-148 -49 0 -50 0 0 120 c0 73 4 120 10 120 6 0 10 120 10 340 0 220 -4 340
-10 340 -5 0 -10 19 -10 42 0 35 6 49 37 80 20 21 41 38 45 38 4 0 8 -33 8
-73z m603 -8 c44 -11 109 -33 144 -49 67 -30 76 -47 48 -84 -8 -11 -15 -36
-15 -55 -1 -66 -17 -111 -58 -155 l-39 -43 -59 32 c-60 31 -187 65 -248 65
-60 0 -66 7 -66 67 0 47 5 62 41 115 36 53 41 65 36 100 l-5 40 71 -7 c39 -3
106 -16 150 -26z m522 -64 c50 -29 88 -100 99 -183 l7 -53 -61 -68 c-58 -65
-63 -69 -133 -85 -79 -19 -85 -23 -332 -245 l-116 -104 -59 59 -59 59 90 105
c140 161 239 281 239 288 0 4 5 36 10 71 8 60 13 68 67 123 l57 58 75 0 c61 0
82 -4 116 -25z m165 -275 c0 -11 6 -20 13 -20 19 0 80 -136 112 -245 14 -50
29 -131 32 -182 l6 -93 -36 0 -37 0 0 63 c-1 113 -43 266 -111 400 -24 49 -27
60 -17 77 16 26 38 26 38 0z m-85 -152 c19 -40 38 -88 41 -108 4 -19 10 -40
15 -46 9 -11 39 -173 39 -210 0 -22 -4 -24 -43 -24 -32 0 -55 -9 -94 -35 -45
-30 -60 -35 -111 -35 l-60 0 -6 68 c-9 86 -30 161 -67 234 -34 67 -35 76 -12
85 9 4 28 19 42 35 20 23 42 33 96 44 48 10 78 23 95 39 13 14 26 25 28 25 1
0 18 -32 37 -72z m-723 -315 l68 -67 0 -178 0 -178 -138 0 -138 0 -22 48 c-34
74 -83 125 -151 156 l-61 27 0 130 0 129 187 0 187 0 68 -67z m990 -151 c55
-59 67 -105 43 -172 -9 -24 -19 -47 -24 -50 -5 -3 -23 -16 -40 -29 -27 -21
-41 -24 -123 -24 -91 -1 -94 0 -145 36 l-53 37 -250 0 -250 0 0 90 0 90 245 0
246 0 52 35 c51 34 54 35 153 35 l101 0 45 -48z"/>
<path d="M1485 4531 c-62 -10 -66 -16 -51 -59 8 -20 20 -50 27 -66 l13 -28 73
6 c81 8 142 -5 169 -36 20 -21 68 -24 129 -7 66 18 68 25 30 81 -19 27 -37 65
-41 84 l-6 34 -152 -1 c-83 -1 -169 -4 -191 -8z"/>
<path d="M1960 4526 c0 -16 86 -136 97 -136 5 0 28 7 52 16 24 8 75 18 114 22
68 7 71 8 79 37 5 17 6 40 3 53 -5 22 -7 22 -175 22 -138 0 -170 -3 -170 -14z"/>
<path d="M2430 4516 c0 -13 -3 -37 -6 -53 -6 -29 -4 -30 41 -43 52 -15 145
-79 188 -129 27 -33 28 -33 90 -27 81 10 134 34 176 81 30 35 33 43 29 89 -2
28 -12 63 -22 79 l-18 27 -239 0 -239 0 0 -24z"/>
<path d="M3087 4470 c9 -106 -8 -153 -82 -226 l-62 -61 29 -34 c40 -48 84
-126 99 -176 7 -24 16 -43 21 -43 20 0 144 53 160 69 16 15 16 21 -3 96 -24
99 -62 380 -57 417 5 28 4 28 -53 28 l-58 0 6 -70z"/>
<path d="M1158 4414 c-115 -60 -138 -82 -138 -132 0 -36 4 -41 50 -70 28 -17
50 -36 50 -42 0 -5 6 -10 13 -10 16 0 67 -52 67 -68 0 -7 4 -12 10 -12 5 0 21
-21 36 -47 15 -27 29 -49 30 -51 8 -12 94 29 132 63 l45 41 -42 54 c-52 65
-128 220 -137 278 -4 23 -12 42 -18 42 -6 -1 -50 -21 -98 -46z"/>
<path d="M2359 4303 c-1 -5 0 -20 1 -35 3 -58 -47 -117 -108 -125 -56 -7 -99
18 -123 72 l-20 44 -32 -19 c-107 -62 -266 -77 -412 -40 -43 11 -81 18 -84 15
-3 -3 2 -18 11 -33 13 -21 31 -30 85 -43 127 -31 214 -75 301 -154 l40 -35 74
35 c99 47 201 68 310 63 l86 -4 6 29 c3 16 6 60 6 96 0 60 -3 70 -27 93 -16
14 -38 31 -50 37 -25 13 -62 15 -64 4z"/>
<path d="M739 4048 c-42 -58 -83 -149 -110 -238 -17 -61 -23 -109 -26 -253 -3
-113 -2 -182 5 -189 11 -11 83 17 133 53 27 19 30 25 24 58 -23 137 134 202
237 99 47 -47 69 -93 98 -208 39 -154 41 -160 55 -160 21 0 62 67 76 123 11
44 10 51 -10 77 -11 16 -21 36 -21 45 0 8 -9 24 -20 35 -11 11 -20 31 -20 45
0 14 -4 25 -10 25 -5 0 -10 6 -10 13 0 6 -23 64 -50 126 -28 63 -50 118 -50
122 0 3 -11 19 -25 35 -13 16 -52 61 -85 101 -51 61 -134 133 -154 133 -3 0
-20 -19 -37 -42z"/>
<path d="M2687 4049 c-57 -30 -57 -44 0 -95 87 -75 143 -189 143 -289 0 -30 6
-47 21 -61 28 -25 45 -12 83 61 72 143 33 335 -77 386 -54 24 -122 23 -170 -2z"/>
<path d="M1541 3961 c-30 -49 -89 -87 -160 -102 -38 -8 -63 -21 -78 -38 -28
-32 -28 -46 -3 -71 11 -11 20 -31 20 -45 0 -14 4 -25 8 -25 11 0 72 -88 72
-104 0 -8 8 -16 18 -20 9 -3 36 -22 60 -41 57 -46 82 -47 82 -1 0 19 -4 46
-10 60 -6 17 -6 26 0 26 6 0 10 21 10 46 0 39 5 51 33 79 46 46 104 62 159 45
23 -8 43 -22 46 -32 2 -10 13 -18 23 -18 26 0 49 -50 49 -110 0 -38 -4 -50
-15 -50 -10 0 -15 -10 -15 -28 0 -36 -16 -52 -52 -52 -17 0 -28 -5 -28 -13 0
-8 -19 -17 -47 -23 -99 -19 -51 -82 107 -144 43 -16 105 -32 137 -35 32 -4 68
-8 81 -11 18 -4 32 4 58 32 51 57 52 70 6 109 -52 45 -69 84 -93 213 -24 128
-53 195 -110 257 -71 77 -195 135 -288 135 -42 -1 -48 -4 -70 -39z"/>
<path d="M2263 3915 c-23 -19 -58 -58 -78 -85 l-37 -50 16 -63 c9 -35 16 -93
16 -129 0 -89 5 -92 149 -96 130 -4 188 10 289 70 l54 33 -4 81 c-3 55 -10 91
-22 108 -20 31 -36 26 -36 -12 0 -37 -33 -88 -69 -107 -17 -8 -52 -15 -80 -15
-39 0 -56 6 -82 27 -35 30 -59 78 -59 119 0 30 45 114 60 114 19 0 10 17 -15
28 -41 19 -58 15 -102 -23z"/>
<path d="M3194 3839 c-42 -12 -50 -24 -57 -87 -7 -63 -43 -145 -93 -214 -33
-47 -34 -51 -19 -74 21 -32 57 -39 105 -20 22 9 59 16 83 16 39 1 49 7 146 99
l104 97 -55 75 c-31 41 -61 84 -67 97 -10 19 -19 22 -64 21 -29 0 -66 -5 -83
-10z"/>
<path d="M2786 3461 c-3 -5 2 -15 11 -22 9 -8 25 -33 35 -56 31 -71 0 -150
-74 -189 -79 -41 -187 13 -204 102 -7 38 -34 51 -81 39 -35 -8 -43 -21 -43
-65 0 -60 11 -80 54 -102 68 -34 183 -118 221 -160 l36 -39 102 99 c56 54 130
124 165 157 34 32 62 62 62 67 0 5 -19 7 -42 3 -80 -11 -146 44 -155 129 -6
46 -6 46 -44 46 -21 0 -40 -4 -43 -9z"/>
<path d="M909 3437 c-13 -10 -15 -29 -11 -108 4 -81 1 -108 -18 -163 -44 -133
-24 -221 60 -264 66 -34 150 -22 207 31 l23 20 -38 41 c-51 55 -78 114 -108
236 -29 117 -50 177 -72 203 -18 20 -22 20 -43 4z"/>
<path d="M3581 3282 c-86 -82 -132 -132 -127 -140 11 -18 58 -15 107 7 98 43
214 36 322 -22 124 -65 207 -214 207 -374 0 -49 3 -63 15 -64 8 -1 20 -2 27
-3 21 -2 36 67 37 165 l1 96 -54 54 c-79 79 -91 154 -37 220 l19 23 -138 52
c-76 28 -158 66 -183 83 -25 17 -49 31 -54 31 -4 0 -68 -58 -142 -128z"/>
<path d="M750 3304 c-8 -8 -44 -33 -82 -56 l-68 -40 0 -213 c0 -239 -4 -227
81 -259 58 -21 123 -62 173 -109 21 -20 42 -37 45 -37 4 0 22 16 41 35 l34 35
-22 69 c-19 58 -27 71 -53 81 -23 10 -36 10 -55 1 -34 -15 -89 -14 -123 4 -30
15 -61 69 -61 105 0 36 31 90 61 105 31 17 44 48 60 153 11 73 6 142 -10 142
-5 0 -14 -7 -21 -16z"/>
<path d="M1310 3211 c-11 -16 -27 -48 -35 -70 -13 -38 -12 -44 11 -100 14 -37
24 -81 24 -111 0 -47 2 -51 33 -63 54 -23 72 -52 72 -114 0 -51 -3 -57 -39
-90 -35 -33 -42 -35 -87 -31 -33 4 -58 13 -73 28 -30 27 -54 21 -95 -26 -38
-43 -38 -52 -4 -65 82 -31 266 -20 378 23 62 24 71 40 50 91 -22 52 -19 142 5
192 23 48 59 84 126 128 70 46 69 62 -8 76 -35 7 -75 19 -90 26 -15 7 -42 16
-59 20 -17 4 -33 13 -36 21 -3 8 -13 14 -22 14 -9 0 -38 18 -66 40 -27 22 -53
40 -57 40 -4 0 -16 -13 -28 -29z"/>
<path d="M4252 3187 c-30 -32 -28 -61 13 -142 48 -96 60 -165 46 -284 l-12
-95 53 -54 c50 -51 95 -81 146 -96 l22 -7 0 350 0 351 -123 0 c-116 0 -125 -1
-145 -23z"/>
<path d="M2186 3127 c-27 -20 -11 -42 81 -119 43 -36 118 -103 168 -150 l90
-86 52 45 c29 25 53 51 53 58 0 16 -102 112 -163 154 -61 41 -182 98 -227 106
-23 4 -42 1 -54 -8z"/>
<path d="M3237 2927 c-153 -147 -153 -148 -122 -254 28 -93 134 -156 233 -138
36 6 122 50 122 62 0 3 -12 31 -27 62 -34 69 -38 179 -10 252 14 37 15 52 7
75 -11 29 -48 74 -59 73 -3 0 -68 -59 -144 -132z"/>
<path d="M3664 3021 c-134 -61 -145 -255 -18 -344 91 -64 225 -36 280 58 32
55 25 71 -19 45 -20 -13 -50 -20 -80 -20 -42 0 -54 5 -83 34 -30 30 -34 40
-34 85 0 44 5 56 36 91 22 24 34 46 30 55 -8 21 -62 19 -112 -4z"/>
<path d="M1794 2941 c-74 -53 -104 -108 -104 -186 0 -51 4 -53 74 -29 64 22
176 15 232 -14 57 -29 127 -110 154 -179 13 -32 26 -61 29 -65 7 -9 97 66 111
91 22 43 -100 237 -198 314 -127 99 -225 122 -298 68z"/>
<path d="M2897 2611 l-51 -49 22 -52 c27 -64 100 -175 141 -214 17 -17 31 -36
31 -43 0 -7 6 -13 13 -13 8 0 48 -18 91 -40 99 -52 154 -54 214 -10 59 43 92
97 99 164 7 67 -2 74 -66 51 -63 -22 -166 -19 -221 6 -63 28 -127 94 -161 164
-16 33 -29 66 -29 73 0 25 -33 11 -83 -37z"/>
<path d="M607 2614 c-4 -4 -7 -155 -7 -335 l0 -328 43 -5 c116 -14 207 -17
227 -6 12 6 28 26 35 44 13 30 11 36 -25 108 -47 93 -56 156 -41 280 l11 93
-48 48 c-69 71 -172 124 -195 101z"/>
<path d="M1768 2586 c-45 -16 -88 -43 -88 -55 0 -5 11 -33 24 -62 34 -75 40
-141 20 -214 -9 -33 -17 -74 -17 -91 -1 -36 37 -94 61 -94 9 1 76 56 147 124
l130 124 -1 53 c-1 112 -50 188 -137 214 -61 18 -90 18 -139 1z"/>
<path d="M3723 2560 c-91 -24 -133 -46 -133 -69 0 -10 7 -36 16 -57 21 -49 14
-135 -14 -191 -23 -44 -74 -94 -125 -119 -71 -37 -63 -57 33 -78 44 -9 86 -23
94 -31 8 -8 24 -15 35 -15 12 0 30 -9 41 -20 11 -11 27 -20 35 -20 8 0 33 -16
55 -36 25 -22 46 -34 55 -30 9 3 29 35 46 70 l30 64 -22 44 c-14 26 -24 69
-27 111 -4 60 -7 68 -28 73 -13 3 -37 22 -54 40 -50 58 -38 142 26 185 41 27
93 24 139 -6 22 -16 44 -23 55 -20 25 8 82 74 77 88 -11 35 -223 46 -334 17z"/>
<path d="M4210 2505 c-33 -34 -34 -36 -23 -78 21 -76 32 -97 60 -108 20 -8 37
-8 59 0 49 17 98 13 129 -11 68 -53 66 -142 -5 -199 -32 -26 -41 -41 -49 -83
-20 -105 -22 -141 -8 -160 13 -17 15 -17 50 7 21 14 51 28 67 32 l30 7 0 229
c0 210 -2 230 -17 235 -59 19 -146 70 -195 113 -31 28 -58 51 -60 51 -2 0 -19
-16 -38 -35z"/>
<path d="M1303 2466 c-52 -25 -103 -83 -103 -118 0 -23 5 -23 42 4 20 14 46
21 72 21 75 0 126 -53 126 -133 0 -33 -7 -48 -39 -83 -50 -54 -43 -72 23 -65
61 7 120 48 147 100 31 61 24 152 -16 209 -58 82 -161 109 -252 65z"/>
<path d="M985 2416 c-44 -105 -34 -235 23 -300 41 -47 55 -96 50 -175 l-5 -66
71 -23 c39 -13 120 -47 181 -76 l110 -54 105 98 c144 134 144 134 130 159 -11
21 -83 64 -92 55 -3 -2 -33 -9 -68 -15 -232 -37 -440 148 -440 391 0 36 -2 40
-26 40 -19 0 -28 -8 -39 -34z"/>
<path d="M2536 2281 l-27 -29 53 -52 c93 -92 272 -197 343 -202 17 -1 36 -6
43 -11 6 -5 12 -6 12 -1 -1 21 -39 54 -95 82 -86 43 -145 89 -145 112 0 14 -7
20 -22 21 -15 0 -37 18 -66 55 -24 30 -49 54 -56 54 -7 0 -25 -13 -40 -29z"/>
<path d="M4013 2229 c-18 -12 -33 -28 -33 -36 0 -9 33 -51 74 -94 66 -69 77
-85 96 -149 12 -39 26 -99 32 -133 11 -65 20 -82 50 -98 18 -9 18 -6 12 68 -4
54 -1 113 11 191 19 125 16 183 -12 214 -52 58 -168 77 -230 37z"/>
<path d="M2236 1995 l-170 -162 53 -18 c63 -21 103 -53 137 -111 24 -41 38
-49 74 -44 30 4 32 19 7 50 -36 42 -43 90 -22 145 23 62 65 90 135 90 73 0
113 -28 137 -96 19 -54 35 -63 86 -54 40 8 49 32 40 100 -5 38 -9 43 -90 90
-47 28 -115 77 -152 111 l-66 61 -169 -162z"/>
<path d="M3959 1913 c-13 -21 -24 -58 -27 -88 -4 -50 -2 -56 51 -131 64 -93
97 -155 97 -184 0 -12 6 -28 14 -36 8 -7 17 -33 21 -56 3 -24 10 -52 14 -63 5
-11 14 -39 20 -62 14 -51 102 -139 198 -196 16 -10 87 55 118 107 42 73 55
153 55 362 0 105 -3 193 -6 197 -8 8 -57 -17 -101 -50 -24 -19 -34 -35 -39
-69 -17 -118 -146 -137 -244 -36 -68 71 -110 162 -117 255 -7 89 -22 103 -54
50z"/>
<path d="M3065 1858 c-11 -9 -30 -32 -40 -52 l-20 -36 38 -31 c53 -44 75 -93
98 -221 14 -77 30 -130 51 -170 63 -118 197 -206 326 -215 l67 -5 20 38 c26
48 93 91 168 106 48 10 61 17 73 41 14 27 13 33 -15 93 -17 36 -40 77 -51 91
-11 14 -20 34 -20 44 0 11 -6 19 -13 19 -16 0 -67 52 -67 68 0 18 -77 15 -83
-3 -4 -8 -3 -37 0 -64 7 -63 -3 -121 -22 -121 -8 0 -15 -9 -15 -20 0 -34 -56
-60 -128 -60 -59 0 -65 2 -104 39 -41 37 -42 42 -46 107 -2 56 1 75 17 102 12
19 29 32 41 32 11 0 20 6 20 14 0 18 22 26 75 26 38 0 44 3 50 27 5 22 2 32
-19 48 -14 12 -26 26 -26 33 0 7 -9 12 -20 12 -13 0 -20 7 -20 20 0 20 -35 29
-42 11 -3 -11 -107 21 -117 36 -11 16 -152 10 -176 -9z"/>
<path d="M2010 1684 c-14 -7 -45 -14 -70 -14 -43 0 -49 -4 -149 -98 l-103 -97
63 -96 c35 -53 69 -104 74 -113 9 -16 15 -15 67 9 31 14 59 34 62 43 3 9 12
44 22 77 21 77 79 188 121 232 l32 35 -22 19 c-26 21 -62 23 -97 3z"/>
<path d="M2680 1633 c-41 -8 -163 -69 -189 -93 -21 -21 -23 -28 -16 -84 7 -62
26 -119 43 -130 6 -3 13 11 17 35 5 27 19 53 44 80 36 37 41 39 99 39 54 0 65
-4 97 -31 61 -54 68 -148 14 -205 -28 -30 -20 -38 25 -30 25 5 52 26 105 81
39 41 71 81 71 88 0 6 -4 27 -10 45 -5 19 -12 68 -15 110 -4 43 -11 81 -16 86
-10 11 -228 18 -269 9z"/>
<path d="M2234 1541 c-44 -27 -85 -114 -91 -194 -4 -51 -1 -73 16 -111 29 -67
75 -122 127 -152 38 -22 54 -26 104 -22 73 5 90 19 90 72 0 38 -5 44 -58 86
-81 64 -125 154 -128 259 -2 85 -10 93 -60 62z"/>
<path d="M1968 1169 c-43 -17 -78 -36 -78 -43 0 -6 9 -53 20 -103 11 -50 22
-124 25 -164 3 -41 11 -118 17 -171 l10 -98 53 0 53 0 -5 78 c-4 49 -1 93 6
115 15 45 61 104 107 134 l35 24 -36 42 c-32 37 -92 148 -109 200 -7 22 -7 22
-98 -14z"/>
<path d="M3050 1139 c-106 -42 -228 -62 -299 -49 -98 17 -95 18 -114 -22 -10
-20 -20 -59 -24 -87 -5 -45 -3 -55 22 -87 30 -39 102 -77 136 -72 18 2 21 11
23 52 2 42 7 53 40 83 35 32 43 35 83 30 44 -5 103 -46 103 -71 0 -6 4 -17 9
-24 7 -11 22 -8 77 16 87 38 138 52 191 52 54 0 136 -18 192 -42 49 -21 58
-17 67 27 l5 30 -148 48 c-136 44 -170 61 -268 131 -18 13 -28 11 -95 -15z"/>
<path d="M3755 1128 c-36 -19 -75 -61 -75 -80 0 -9 28 -59 61 -110 66 -101 95
-158 114 -228 14 -51 29 -55 98 -25 32 13 44 27 69 80 16 36 35 94 41 130 10
59 9 66 -8 83 -11 10 -28 21 -37 25 -10 3 -18 13 -18 22 0 9 -9 15 -23 15 -14
0 -45 20 -78 50 -57 52 -99 63 -144 38z"/>
<path d="M2379 893 c-41 -6 -129 -64 -163 -106 -23 -29 -31 -50 -34 -96 -8
-106 -21 -101 274 -101 195 0 256 3 258 13 3 6 7 30 10 53 l6 41 -43 12 c-61
18 -168 93 -206 146 -33 46 -38 48 -102 38z"/>
<path d="M3253 805 c-18 -8 -33 -17 -33 -20 0 -4 18 -32 40 -63 22 -30 45 -73
51 -95 l10 -39 182 4 c100 3 190 8 200 12 22 10 22 23 -3 90 l-21 54 -88 4
c-79 3 -93 6 -140 36 -43 26 -62 32 -109 32 -31 -1 -72 -7 -89 -15z"/>
<path d="M3060 731 c-18 -10 -120 -30 -170 -33 -31 -3 -36 -7 -44 -39 -17 -69
-17 -69 174 -69 93 0 170 2 170 5 0 24 -91 146 -109 145 -3 0 -13 -4 -21 -9z"/>
<path d="M4764 5075 c-89 -92 -87 -223 4 -314 93 -92 230 -94 325 -4 27 27 27
27 27 164 l0 137 -35 31 -36 31 -121 0 -121 0 -43 -45z"/>
<path d="M114 424 c-22 -8 -57 -30 -77 -48 l-37 -34 0 -132 0 -133 40 -39 41
-38 113 0 114 0 39 38 c75 74 97 155 63 244 -46 124 -174 185 -296 142z"/>
</g>
</svg>
