<?xml version="1.0" standalone="no"?>
<!DOCTYPE svg PUBLIC "-//W3C//DTD SVG 20010904//EN"
 "http://www.w3.org/TR/2001/REC-SVG-20010904/DTD/svg10.dtd">
<svg version="1.0" xmlns="http://www.w3.org/2000/svg"
 width="16.000000pt" height="16.000000pt" viewBox="0 0 16.000000 16.000000"
 preserveAspectRatio="xMidYMid meet">
<metadata>
Created by potrace 1.11, written by Peter Selinger 2001-2013
</metadata>
<g transform="translate(0.000000,16.000000) scale(0.002286,-0.002286)"
fill="#000000" stroke="none">
<path d="M3299 6996 c-2 -2 -47 -6 -99 -10 -52 -3 -106 -8 -120 -10 -14 -3
-47 -7 -75 -10 -27 -3 -59 -8 -70 -10 -26 -5 -82 -14 -125 -21 -19 -3 -42 -8
-50 -10 -8 -2 -29 -7 -47 -10 -162 -27 -537 -146 -711 -226 -35 -16 -66 -29
-69 -29 -9 0 -199 -98 -298 -153 -585 -327 -1049 -831 -1362 -1477 -119 -247
-279 -689 -268 -739 8 -38 61 -105 190 -245 6 -6 37 -42 70 -81 69 -80 110
-126 145 -165 14 -15 45 -51 70 -80 25 -29 50 -58 55 -64 6 -6 39 -45 75 -86
36 -41 70 -79 75 -86 6 -6 37 -41 70 -79 70 -79 98 -112 123 -140 10 -11 81
-92 157 -180 77 -88 142 -162 145 -165 7 -6 188 -212 294 -334 43 -50 106
-122 141 -161 34 -38 77 -88 96 -110 19 -22 48 -56 65 -75 17 -19 100 -114
184 -210 83 -96 166 -191 184 -210 25 -28 256 -291 407 -465 31 -36 101 -114
189 -214 36 -40 68 -79 72 -85 3 -6 -5 -45 -19 -86 -33 -97 -42 -262 -20 -365
59 -275 237 -477 496 -565 84 -28 129 -35 236 -35 108 0 150 6 235 34 387 125
600 572 459 964 -20 58 -20 59 -2 80 11 12 52 60 93 107 41 47 83 95 94 106
12 12 41 45 66 74 25 30 50 58 55 64 16 17 298 338 415 471 58 66 108 122 111
125 4 3 24 26 45 51 50 60 365 416 414 469 8 8 40 45 70 80 30 35 62 71 70 80
8 9 40 44 70 79 30 35 66 76 80 91 24 26 84 94 185 210 27 30 51 57 54 60 3 3
33 37 66 75 33 39 62 72 65 75 6 6 136 152 176 199 16 18 40 46 54 61 14 15
52 58 85 96 33 37 94 107 135 154 41 47 79 90 85 96 5 6 35 39 65 74 30 35 60
68 65 74 6 6 42 47 80 91 39 44 75 86 82 93 30 32 26 76 -25 228 -210 624
-484 1085 -887 1490 -272 274 -546 471 -895 645 -291 145 -625 262 -910 318
-30 6 -66 13 -80 16 -14 3 -54 10 -90 15 -36 6 -76 13 -90 15 -14 3 -54 7 -90
11 -36 3 -74 8 -85 11 -23 5 -521 13 -526 9z m386 -231 c122 -6 169 -10 240
-20 22 -3 56 -7 75 -10 66 -8 255 -46 355 -71 423 -107 885 -323 1200 -562
162 -123 386 -332 486 -453 20 -24 53 -62 72 -84 207 -236 453 -685 593 -1083
24 -68 46 -127 49 -132 4 -7 -44 -76 -63 -90 -4 -3 -70 -77 -147 -165 -76 -88
-175 -201 -220 -250 -44 -50 -109 -124 -145 -165 -36 -41 -72 -81 -80 -90 -8
-9 -44 -50 -80 -91 -36 -41 -69 -79 -75 -85 -5 -6 -35 -39 -65 -74 -30 -35
-60 -68 -65 -74 -6 -6 -39 -44 -75 -85 -36 -41 -74 -84 -85 -95 -11 -12 -37
-41 -57 -65 l-37 -43 -83 73 c-46 40 -96 85 -113 100 -16 14 -88 77 -160 140
-71 62 -132 116 -135 119 -3 3 -57 50 -120 105 -63 55 -117 102 -120 105 -7 7
-382 337 -484 425 -45 39 -97 84 -116 101 -19 18 -114 101 -210 185 -96 84
-206 180 -245 214 -192 171 -210 185 -242 191 -65 12 -40 31 -513 -381 -102
-89 -198 -172 -214 -186 -16 -13 -38 -33 -50 -44 -12 -11 -68 -60 -126 -109
-58 -50 -109 -95 -115 -101 -5 -5 -59 -53 -120 -104 -60 -52 -123 -107 -140
-121 -16 -15 -55 -49 -85 -75 -30 -26 -68 -59 -85 -74 -16 -14 -64 -55 -105
-91 -41 -35 -77 -67 -80 -70 -3 -3 -72 -64 -155 -135 -82 -70 -181 -156 -218
-189 -88 -79 -95 -82 -115 -59 -10 10 -109 124 -222 253 -113 129 -209 240
-215 246 -30 33 -84 95 -210 239 -77 88 -142 162 -145 165 -3 3 -21 23 -40 46
-19 22 -62 71 -96 110 -184 209 -220 250 -232 265 -10 14 -9 26 7 70 10 30 33
95 51 144 17 50 38 104 45 120 7 17 30 71 50 120 21 50 64 144 98 210 221 439
486 767 866 1073 68 55 313 222 326 222 4 0 19 8 33 19 50 35 326 169 447 216
401 158 782 239 1180 252 94 3 171 7 173 8 2 2 11 1 20 -1 9 -1 71 -5 137 -9z
m-128 -2331 c25 -21 52 -44 61 -54 10 -9 109 -97 222 -195 113 -99 210 -184
216 -190 6 -5 39 -35 74 -65 34 -30 71 -62 80 -70 9 -8 48 -42 85 -75 225
-197 263 -230 295 -259 19 -17 69 -60 110 -96 41 -36 80 -69 86 -75 6 -5 39
-35 74 -65 35 -30 68 -60 74 -65 6 -6 101 -89 211 -185 110 -96 215 -188 232
-205 l33 -30 -31 -35 c-40 -46 -139 -158 -164 -186 -11 -12 -31 -35 -45 -51
-106 -122 -156 -179 -160 -183 -3 -3 -39 -43 -80 -90 -41 -47 -79 -90 -84 -96
-6 -6 -36 -39 -66 -74 -30 -35 -59 -68 -65 -74 -77 -86 -109 -121 -155 -175
-30 -35 -60 -69 -65 -75 -6 -6 -58 -65 -115 -131 -58 -66 -110 -124 -116 -130
-6 -5 -57 -63 -113 -127 -57 -65 -106 -118 -110 -118 -4 0 -18 12 -32 26 -55
60 -196 141 -289 168 -90 25 -120 29 -225 28 -193 -2 -373 -74 -509 -204 l-38
-37 -34 40 c-18 22 -46 54 -62 72 -17 17 -69 77 -118 132 -48 55 -112 129
-143 164 -31 35 -61 69 -66 75 -6 6 -53 60 -105 121 -52 60 -99 115 -105 121
-22 24 -143 161 -351 399 -120 138 -253 290 -296 338 -43 49 -78 93 -78 97 0
5 30 35 67 67 37 32 74 64 83 72 8 8 75 66 149 130 75 64 143 123 152 131 8 8
42 38 75 66 49 42 212 184 359 313 17 14 62 53 100 86 39 33 72 62 75 65 3 3
54 48 115 100 60 52 123 107 140 122 16 14 41 36 55 48 14 12 50 43 80 70 30
26 127 110 215 186 88 76 178 155 200 176 22 21 44 38 49 38 5 0 29 -16 53
-36z m82 -3192 c31 -8 67 -23 81 -32 14 -10 35 -21 48 -24 34 -11 145 -127
180 -189 171 -302 -13 -698 -354 -761 -44 -9 -145 -9 -189 0 -49 9 -158 55
-195 82 -135 97 -217 245 -225 402 -5 100 8 160 51 249 65 132 195 237 342
276 65 17 193 16 261 -3z"/>
<path d="M3372 3484 c-77 -23 -151 -66 -206 -118 -202 -193 -207 -500 -11
-698 251 -253 680 -158 801 177 32 88 39 157 24 244 -16 94 -66 195 -131 260
-66 67 -111 95 -205 127 -84 28 -193 31 -272 8z m267 -254 c214 -146 121 -477
-135 -479 -241 -3 -356 284 -181 451 55 52 106 69 196 64 62 -4 81 -9 120 -36z"/>
</g>
</svg>
