<?xml version="1.0" standalone="no"?>
<!DOCTYPE svg PUBLIC "-//W3C//DTD SVG 20010904//EN"
 "http://www.w3.org/TR/2001/REC-SVG-20010904/DTD/svg10.dtd">
<svg version="1.0" xmlns="http://www.w3.org/2000/svg"
 width="16.000000pt" height="16.000000pt" viewBox="0 0 16.000000 16.000000"
 preserveAspectRatio="xMidYMid meet">
<metadata>
Created by potrace 1.11, written by Peter Selinger 2001-2013
</metadata>
<g transform="translate(0.000000,16.000000) scale(0.002286,-0.002286)"
fill="#000000" stroke="none">
<path d="M1403 6990 c-185 -37 -342 -147 -435 -304 -44 -73 -76 -165 -85 -238
-9 -80 -9 -5887 0 -5949 32 -212 182 -392 391 -468 l71 -26 2390 0 2390 0 0
3495 0 3495 -2340 1 c-1287 1 -2359 -2 -2382 -6z m4487 -282 l0 -58 -301 0
c-251 0 -306 -3 -334 -15 -53 -26 -76 -95 -49 -151 31 -65 43 -67 382 -68
l302 0 0 -58 0 -58 -241 0 c-272 0 -300 -6 -325 -66 -18 -42 -18 -68 0 -103
32 -62 46 -65 318 -65 l248 0 0 -58 0 -58 -1070 0 c-588 0 -1070 2 -1070 3 0
2 51 106 114 231 62 124 110 228 107 230 -3 2 -374 3 -823 3 -738 0 -819 -1
-832 -16 -7 -9 -63 -114 -122 -234 l-109 -217 -301 0 c-325 1 -361 6 -453 55
-56 31 -128 94 -159 140 -11 17 -30 60 -42 95 -76 223 86 484 320 518 30 4
1042 8 2248 8 l2192 0 0 -58z m-2298 -527 c4 -1 -31 -78 -77 -172 -56 -113
-83 -178 -79 -191 6 -20 8 -2807 2 -2813 -2 -2 -132 210 -288 471 -157 260
-289 473 -293 471 -4 -1 -136 -215 -291 -475 -156 -260 -286 -470 -288 -465
-2 4 -4 638 -3 1408 l2 1400 92 182 c55 110 98 183 108 185 14 3 1095 2 1115
-1z m-2381 -407 c62 -30 138 -50 216 -56 l32 -2 -1 -2741 0 -2742 -49 8 c-135
21 -237 110 -282 243 -16 46 -17 254 -17 2699 l0 2649 28 -18 c15 -10 48 -28
73 -40z m829 -134 c0 -41 1 -707 1 -1480 0 -1518 -2 -1456 53 -1507 71 -65
189 -63 250 5 16 19 285 461 452 745 32 53 60 97 63 97 3 -1 96 -152 206 -337
280 -472 302 -505 340 -530 99 -65 239 -7 264 109 4 18 7 695 6 1503 l0 1471
1105 -1 1105 0 3 -2741 2 -2741 -2100 1 -2100 0 0 2736 c0 1505 2 2739 5 2742
3 2 81 4 175 4 l170 0 0 -76z"/>
</g>
</svg>
