<svg id="svg" version="1.1" width="400" height="349" xmlns="http://www.w3.org/2000/svg" xmlns:xlink="http://www.w3.org/1999/xlink" style="display: block;"><g id="svgg"><path id="path0" d="M8.861 13.912 L 6.500 15.823 6.240 153.390 L 5.979 290.957 8.497 291.589 C 14.825 293.177,32.875 291.569,35.238 289.207 L 37.500 286.945 38.000 161.222 L 38.500 35.500 62.500 35.190 C 105.915 34.629,103.000 30.430,103.000 93.527 C 103.000 154.155,105.089 150.087,73.500 150.969 L 54.500 151.500 54.500 161.209 C 54.500 174.700,52.822 173.937,82.500 173.933 C 134.846 173.924,135.964 172.231,135.964 93.000 C 135.964 9.292,138.651 12.095,58.361 12.035 C 13.410 12.002,11.112 12.089,8.861 13.912 M146.861 13.911 L 144.500 15.823 144.000 159.161 C 143.398 331.659,146.171 312.926,121.065 314.114 C 102.393 314.998,102.000 315.318,102.000 329.630 C 102.000 338.849,100.729 338.461,128.366 337.671 C 155.122 336.905,160.776 335.470,167.610 327.705 C 176.066 318.099,175.398 331.488,175.759 164.500 C 175.936 83.100,175.828 15.488,175.521 14.250 C 174.723 11.039,150.758 10.756,146.861 13.911 M195.882 13.503 C 194.246 14.392,193.028 16.110,192.632 18.088 C 191.027 26.115,191.946 290.765,193.582 291.393 C 194.452 291.727,199.964 291.955,205.832 291.900 C 227.304 291.700,225.566 298.466,224.134 220.654 C 223.495 185.919,222.978 145.445,222.986 130.711 C 222.994 115.976,222.580 99.776,222.067 94.711 C 220.027 74.578,219.769 60.000,221.452 60.000 C 222.303 60.000,223.000 60.681,223.000 61.514 C 223.000 62.346,223.414 63.809,223.920 64.764 C 225.005 66.810,228.113 74.803,234.509 92.000 C 237.066 98.875,239.519 105.400,239.959 106.500 C 240.400 107.600,241.543 110.525,242.500 113.000 C 243.457 115.475,244.600 118.400,245.041 119.500 C 245.481 120.600,247.942 127.125,250.510 134.000 C 254.708 145.244,258.824 155.994,261.038 161.500 C 261.480 162.600,263.942 169.125,266.510 176.000 C 272.589 192.280,276.017 201.140,276.955 203.000 C 277.519 204.119,279.874 204.573,286.235 204.787 C 297.905 205.180,299.568 203.776,306.401 187.750 C 307.280 185.688,308.675 182.469,309.500 180.599 C 310.325 178.728,311.000 176.923,311.000 176.588 C 311.000 176.253,311.952 173.846,313.116 171.239 C 315.912 164.979,317.340 161.617,320.016 155.000 C 321.239 151.975,322.825 148.150,323.542 146.500 C 324.259 144.850,332.484 124.908,341.821 102.185 C 359.595 58.929,359.528 59.075,360.878 60.567 C 361.680 61.453,361.476 65.879,359.067 100.000 C 357.538 121.654,357.655 289.255,359.200 290.800 C 362.671 294.271,386.933 291.725,389.271 287.645 C 390.537 285.436,391.745 19.289,390.512 14.250 C 389.975 12.055,389.633 12.000,376.449 12.000 C 355.857 12.000,356.242 11.714,346.894 33.979 C 339.693 51.131,338.858 53.090,336.236 59.000 C 335.138 61.475,332.147 68.617,329.589 74.872 C 327.031 81.127,324.066 88.159,323.000 90.500 C 321.934 92.841,318.969 99.873,316.411 106.128 C 313.853 112.383,310.862 119.525,309.764 122.000 C 303.609 135.874,301.110 142.240,299.561 148.000 C 290.400 182.053,290.525 181.967,285.000 158.000 C 283.273 150.508,280.910 142.324,279.371 138.500 C 278.485 136.300,277.414 133.600,276.990 132.500 C 275.406 128.390,268.751 111.425,267.967 109.500 C 265.206 102.719,258.045 84.488,250.490 65.000 C 245.692 52.625,241.202 41.150,240.511 39.500 C 239.821 37.850,237.574 32.225,235.518 27.000 C 233.462 21.775,231.270 16.262,230.646 14.750 L 229.512 12.000 214.006 12.040 C 202.554 12.070,197.816 12.452,195.882 13.503 " stroke="none" fill="#000000" fill-rule="evenodd"></path></g></svg>