<?xml version="1.0" standalone="no"?>
<!DOCTYPE svg PUBLIC "-//W3C//DTD SVG 20010904//EN"
 "http://www.w3.org/TR/2001/REC-SVG-20010904/DTD/svg10.dtd">
<svg version="1.0" xmlns="http://www.w3.org/2000/svg"
 width="16.000000pt" height="16.000000pt" viewBox="0 0 16.000000 16.000000"
 preserveAspectRatio="xMidYMid meet">
<metadata>
Created by potrace 1.11, written by Peter Selinger 2001-2013
</metadata>
<g transform="translate(0.000000,16.000000) scale(0.002000,-0.002000)"
fill="#000000" stroke="none">
<path d="M3085 7248 c-92 -11 -134 -24 -168 -51 l-28 -23 -2 -1252 c-1 -689
-6 -1252 -10 -1252 -4 0 -4 -8 1 -17 8 -18 7 -86 -2 -110 -3 -7 -1 -13 3 -13
5 0 6 -15 1 -33 -4 -18 -4 -42 1 -53 4 -12 3 -27 -1 -34 -5 -7 -5 -23 0 -35 5
-12 5 -28 0 -35 -5 -7 -4 -24 0 -36 6 -14 5 -26 0 -29 -6 -3 -6 -15 0 -30 6
-15 6 -27 0 -30 -5 -3 -6 -15 -1 -27 4 -12 5 -37 1 -55 -5 -19 -4 -33 2 -33 5
0 6 -4 3 -10 -9 -15 -12 -91 -3 -96 5 -3 5 -10 2 -16 -10 -16 -10 -177 0 -171
5 4 6 1 2 -6 -11 -17 -13 -111 -4 -117 5 -3 5 -10 2 -16 -4 -6 -8 -371 -10
-812 -2 -440 -6 -857 -8 -926 -5 -139 -15 -321 -20 -360 -2 -14 -7 -52 -11
-85 -4 -33 -11 -70 -16 -82 -5 -13 -6 -23 -4 -23 3 0 -5 -24 -16 -53 -20 -51
-74 -113 -101 -115 -7 0 -107 -3 -223 -5 -214 -5 -317 -17 -368 -43 -52 -28
-61 -68 -68 -309 -1 -29 10 -77 21 -90 25 -31 82 -35 370 -31 157 3 312 7 345
10 33 3 91 8 129 11 126 9 250 36 310 69 44 23 125 93 178 154 62 71 80 128
94 292 21 232 27 1021 28 3581 1 1898 -1 2349 -12 2361 -12 15 -44 24 -117 35
-58 8 -231 9 -300 1z"/>
<path d="M308 7245 c-1 -1 -24 -5 -50 -8 -26 -3 -64 -18 -87 -33 l-41 -27 -1
-441 c0 -242 -2 -1381 -5 -2531 -3 -1149 -5 -2097 -4 -2105 0 -8 -1 -31 -1
-50 -1 -19 -1 -44 -1 -55 1 -11 1 -56 1 -100 0 -44 0 -88 0 -97 1 -34 1 -66 1
-105 0 -22 7 -26 70 -39 59 -12 272 -6 369 11 113 19 135 28 166 61 25 27 25
27 26 253 0 124 2 611 5 1081 2 470 4 862 4 870 0 8 0 76 1 150 0 74 0 141 0
148 -1 20 -1 33 -1 112 0 41 0 82 0 90 -2 94 11 2344 13 2347 6 5 756 15 932
11 44 0 151 -20 160 -29 5 -5 17 -9 27 -9 22 0 90 -65 105 -100 19 -43 32 -84
37 -115 3 -16 7 -41 11 -55 4 -18 16 -346 15 -445 0 -5 0 -215 0 -465 -1 -733
-5 -802 -41 -921 -24 -77 -54 -113 -116 -140 -63 -27 -123 -31 -608 -44 -99
-2 -186 -4 -192 -5 -19 0 -18 -329 0 -373 30 -71 68 -76 564 -72 422 4 530 8
573 25 3 1 8 2 13 1 18 -3 107 24 163 50 75 34 149 107 187 182 32 64 72 215
82 304 3 34 8 72 10 85 27 136 27 1858 1 1994 -2 12 -7 44 -11 72 -9 71 -39
172 -69 235 -53 107 -147 182 -279 221 -100 30 -127 34 -307 53 -57 5 -1716
14 -1722 8z"/>
<path d="M4026 7243 c-2 -2 -19 -5 -37 -7 -19 -2 -46 -9 -61 -14 -28 -12 -70
-60 -75 -90 -2 -9 -5 -126 -7 -259 -2 -133 -7 -246 -10 -252 -4 -5 -2 -12 3
-15 4 -3 5 -24 1 -46 -4 -22 -4 -40 0 -40 4 0 4 -16 0 -35 -5 -21 -4 -35 2
-35 5 0 6 -5 3 -11 -11 -17 -11 -78 -1 -72 5 4 6 0 1 -8 -11 -17 -13 -2209 -2
-2209 4 0 4 -8 0 -17 -5 -10 -7 -31 -6 -48 4 -40 4 -44 1 -88 -2 -21 0 -41 4
-43 4 -3 3 -16 -2 -29 -5 -14 -5 -27 0 -30 4 -3 5 -17 1 -33 -4 -15 -4 -42 0
-60 4 -17 3 -35 -2 -38 -5 -3 -6 -10 -3 -16 10 -15 10 -128 1 -128 -5 0 -5 -5
-1 -11 4 -7 8 -233 10 -503 5 -866 16 -1431 28 -1444 4 -4 114 -8 244 -9 264
-2 292 4 322 62 8 17 17 32 20 35 8 8 17 52 27 135 9 71 9 501 -1 1035 -4 212
-8 491 -11 620 -2 129 -6 487 -10 795 -6 650 -14 1117 -19 1195 -7 100 -16
214 -22 275 -13 138 -19 401 -11 445 9 50 32 51 47 3 6 -21 29 -81 50 -133 21
-52 57 -144 79 -205 23 -60 48 -125 56 -143 8 -18 15 -36 15 -41 0 -5 8 -26
17 -47 9 -22 17 -43 19 -49 1 -5 13 -39 27 -75 14 -36 44 -114 67 -175 22 -60
45 -119 50 -130 20 -42 173 -451 173 -462 0 -7 4 -13 9 -13 4 0 8 -6 8 -12 0
-12 46 -135 75 -203 8 -16 17 -43 21 -60 4 -16 10 -34 14 -40 4 -5 23 -53 43
-105 67 -180 99 -265 110 -290 6 -14 11 -28 12 -32 2 -5 4 -10 5 -13 1 -3 3
-8 5 -12 1 -5 5 -17 10 -28 4 -11 21 -56 37 -100 17 -44 34 -89 38 -100 5 -11
23 -58 40 -105 17 -47 35 -94 40 -105 5 -11 22 -51 38 -90 27 -66 31 -70 68
-78 21 -4 89 -9 149 -11 136 -4 188 9 242 63 35 35 103 152 103 178 0 6 7 16
15 23 8 7 15 18 15 26 0 7 13 41 29 76 39 85 60 135 78 188 15 45 23 64 60
150 52 117 78 180 159 375 47 116 92 224 99 240 7 17 27 66 45 110 18 44 38
94 45 110 14 31 36 85 205 495 55 135 104 254 109 265 5 11 35 83 66 160 32
77 62 146 67 153 6 6 8 12 5 12 -5 0 16 50 78 185 13 28 30 59 38 69 14 19 14
19 24 0 12 -25 8 -156 -13 -430 -3 -44 -7 -104 -9 -134 -1 -30 -6 -109 -10
-175 -13 -242 -15 -326 -20 -1189 -3 -483 -7 -881 -9 -885 -2 -3 0 -15 4 -26
4 -11 4 -30 -1 -42 -5 -12 -4 -25 1 -28 5 -3 5 -18 1 -33 -5 -15 -5 -36 -1
-47 4 -11 4 -34 -1 -52 -4 -18 -3 -35 2 -38 4 -3 4 -16 -1 -29 -5 -13 -7 -26
-4 -28 2 -3 6 -277 9 -609 6 -722 10 -838 27 -855 7 -7 32 -17 56 -22 58 -13
294 -5 350 12 9 3 33 8 52 11 45 8 111 38 128 57 9 11 14 88 17 279 3 145 5
270 5 277 -1 31 0 94 4 512 3 245 8 1077 11 1850 3 773 5 1410 5 1415 1 34 -1
494 -4 794 -3 352 -3 354 -25 372 -20 16 -46 18 -261 17 -132 0 -242 -4 -245
-8 -3 -5 -14 -6 -25 -3 -35 9 -127 -44 -161 -93 -37 -55 -85 -150 -134 -269
-20 -49 -50 -118 -66 -153 -16 -34 -29 -68 -29 -75 0 -7 -4 -17 -8 -22 -5 -6
-18 -32 -29 -60 -12 -27 -59 -140 -105 -250 -47 -110 -113 -267 -148 -350 -34
-82 -70 -168 -80 -190 -10 -22 -45 -105 -78 -185 -34 -80 -71 -167 -83 -195
-13 -27 -23 -52 -24 -55 0 -5 -88 -217 -105 -255 -20 -45 -50 -115 -90 -210
-23 -55 -45 -109 -50 -120 -16 -35 -52 -129 -56 -147 -2 -10 -6 -26 -8 -35 -2
-10 -9 -30 -15 -46 -6 -15 -13 -38 -15 -50 -24 -119 -119 -421 -144 -459 -36
-54 -52 -20 -117 247 -20 83 -38 157 -40 165 -2 8 -11 41 -20 74 -9 32 -18 64
-19 70 -3 17 -48 150 -55 161 -3 6 -6 12 -6 15 0 5 -81 212 -96 245 -21 48
-99 250 -99 257 0 4 -11 31 -24 60 -13 29 -50 121 -81 203 -32 83 -68 174 -81
203 -13 29 -24 56 -24 60 0 7 -71 191 -95 247 -7 17 -21 50 -30 75 -9 25 -21
53 -27 64 -5 10 -11 26 -13 35 -4 21 -287 739 -323 821 -6 14 -23 55 -36 93
-14 37 -33 83 -42 103 l-17 35 -278 -2 c-154 -1 -281 -4 -283 -6z"/>
</g>
</svg>
